<?xml version="1.0" encoding="UTF-8"?>
<svg width="83.9625394px" height="51.3811846px" viewBox="0 0 83.9625394 51.3811846" version="1.1" xmlns="http://www.w3.org/2000/svg" xmlns:xlink="http://www.w3.org/1999/xlink">
    <title>Path</title>
    <g id="OGD-Web" stroke="none" stroke-width="1" fill="none" fill-rule="evenodd">
        <g id="Landing-Page" transform="translate(-474.2705, -3291.37)" fill="#F97316" fill-rule="nonzero">
            <g id="Group-2" transform="translate(120, 2989)">
                <path d="M421.942333,286.720239 C418.425705,285.271049 415.434703,286.526081 412.829242,288.042727 C409.23302,290.201404 405.828348,292.771235 402.809255,295.603201 C389.242074,309.017579 382.771207,325.654633 382.455091,344.687719 C382.391883,349.527319 383.015554,354.457597 383.400612,359.883174 C378.617988,358.231152 375.414572,353.802326 370.568304,351.82559 C370.450995,354.093507 371.799438,355.290509 372.890455,356.313355 C377.383946,360.491416 381.984395,364.648687 386.671918,368.6772 C388.940775,370.593655 390.380155,370.538062 391.936538,368.21514 C395.243087,363.418739 396.769103,358.070604 396.428169,352.299366 C396.386078,352.082824 396.000597,351.821199 395.46551,351.363931 C391.074796,353.452318 393.306113,359.192658 389.749548,362.129099 C386.579004,354.999852 386.481099,347.609899 387.070173,340.310605 C387.703673,332.66612 389.045247,325.221085 392.146258,318.219522 C395.1608,311.347128 399.481491,305.455234 404.40279,299.784208 C409.19553,294.02528 415.077054,289.850911 421.942333,286.720239 Z" id="Path" transform="translate(396.2517, 328.0606) scale(-1, -1) rotate(90) translate(-396.2517, -328.0606)"></path>
            </g>
        </g>
    </g>
</svg>