<?xml version="1.0" encoding="UTF-8"?>
<svg width="97.8078045px" height="90.4262px" viewBox="0 0 97.8078045 90.4262" version="1.1" xmlns="http://www.w3.org/2000/svg" xmlns:xlink="http://www.w3.org/1999/xlink">
    <title>Group 5</title>
    <g id="OGD-Web" stroke="none" stroke-width="1" fill="none" fill-rule="evenodd">
        <g id="Group-5">
            <path d="M42.87014,0 C70.93124,0 103.85694,21.0745 96.85394,58.7772 C91.53094,87.4372 70.93124,90.4262 42.87014,90.4262 C14.80904,90.4262 0,67.0754 0,42.1048 C0,14.1291 14.80904,0 42.87014,0 Z M42.87014,1 C28.99554,1 18.56994,4.4924 11.61044,11.2775 C4.65554,18.0583 1.00004,28.2858 1.00004,42.1048 C1.00004,54.4042 4.64874,66.2515 11.69124,75.0026 C18.71484,83.7302 29.14794,89.4262 42.87014,89.4262 C56.91424,89.4262 68.86934,88.6682 77.96754,84.4423 C86.95274,80.2693 93.25894,72.6575 95.87094,58.5945 C99.30594,40.1024 92.96094,25.7493 82.33464,15.9865 C71.67274,6.1904 56.67464,1 42.87014,1 Z" id="Combined-Shape" fill="#F97316"></path>
            <path d="M7.82950455,28.1696894 C16.8236046,1.69268938 43.7758046,-4.79597062 67.5216046,3.20758938 C94.1251046,12.1748894 102.814105,30.6759894 93.8201046,57.1529894 C84.8264046,83.6299894 58.8063046,94.1055894 20.6235046,89.2505894 C-8.08541545,85.5998894 -1.16461545,54.6465894 7.82950455,28.1696894 Z M32.4840046,3.69748938 C21.9327046,7.52748938 13.1741046,15.5450894 8.77710455,28.4890894 C4.27770455,41.7343894 0.366404554,55.9200894 1.08650455,67.2044894 C1.44530455,72.8255894 2.94850455,77.6312894 6.01220455,81.2430894 C9.06350455,84.8403894 13.7623046,87.3702894 20.7517046,88.2585894 C39.7409046,90.6735894 55.5942046,89.2595894 67.7741046,84.0331894 C79.9175046,78.8225894 88.4680046,69.8005894 92.8731046,56.8335894 C97.3191046,43.7443894 97.3401046,32.7900894 93.1181046,24.0495894 C88.8992046,15.3131894 80.3433046,8.58468938 67.2000046,4.15438938 C55.5016046,0.21148938 43.0640046,-0.14291062 32.4840046,3.69748938 Z" id="Combined-Shape" fill="#F97316"></path>
            <g id="1" transform="translate(42.896, 33.6)" fill="#0F172A" fill-rule="nonzero">
                <polygon id="Path" points="7.52 -4.54747351e-13 0 2.912 0 7.424 5.024 5.312 5.024 22.4 9.6 22.4 9.6 -4.54747351e-13"></polygon>
            </g>
        </g>
    </g>
</svg>